# xmcd CD database file
#
# Track frame offsets:
#	150
#	35756
#	40266
#	95732
#	142412
#
# Disc length: 2324 seconds
#
# Revision: 0
# Processed by: cddbd v1.5.2PL0 Copyright (c) Steve Scherf et al.
# Submitted via: CDex 1.51
#
DISCID=4b091205
DTITLE=Solution - Solution
DYEAR=1972
DGENRE=Jazz
TTITLE0=Koan
TTITLE1=Preview
TTITLE2=Phases
TTITLE3=Trane Steps
TTITLE4=Circus Circumstances
EXTD=YEAR: 1972
EXTT0=
EXTT1=
EXTT2=
EXTT3=
EXTT4=
PLAYORDER=
